<svg xmlns="http://www.w3.org/2000/svg" viewBox="0 0 28 28"><link xmlns="" type="text/css" rel="stylesheet" id="dark-mode-custom-link"/><link xmlns="" type="text/css" rel="stylesheet" id="dark-mode-general-link"/><style xmlns="" lang="en" type="text/css" id="dark-mode-custom-style"/><style xmlns="" lang="en" type="text/css" id="dark-mode-native-style"/><path d="M26.9 8.55a14.4 14.4 0 00-1.29-2.38 14.16 14.16 0 00-3.78-3.78 14.4 14.4 0 00-2.38-1.29 14.05 14.05 0 00-10.9 0 15.36 15.36 0 00-1.76.9l1.88 1.88c.29-.15.58-.29.88-.42a11.44 11.44 0 110 21.08c-.3-.13-.59-.27-.88-.42a10.73 10.73 0 01-1.8-1.18L15.81 14 5.05 3.24c-.33.27-.65.56-1 .86s-.59.62-.86 1a13.19 13.19 0 00-.85 1.12c-.14.2-.27.41-.39.62a15.36 15.36 0 00-.9 1.76 14.05 14.05 0 000 10.9A15.36 15.36 0 002 21.21l1.88-1.88c-.15-.29-.29-.58-.42-.88a11.45 11.45 0 010-8.9c.13-.3.27-.59.42-.88a10.73 10.73 0 011.18-1.8L12.19 14l-8.95 9c.27.33.56.65.86.95s.62.59 1 .86a13.19 13.19 0 001.12.85c.2.14.41.27.62.39a15.36 15.36 0 001.76.9 14.05 14.05 0 0010.9 0 14.4 14.4 0 002.38-1.29 14.16 14.16 0 003.78-3.78 14.4 14.4 0 001.29-2.38 14.05 14.05 0 000-10.9z" fill="#999"/></svg>